<svg width="180" height="33" viewBox="0 0 180 33" fill="none" xmlns="http://www.w3.org/2000/svg">
<g clip-path="url(#clip0_116_1106)">
<path d="M0.166748 32.9442H33.9L23.1015 22.4413L12.6862 32.4657L6.70787 26.6201L23.1015 10.5587L33.9 20.615V0H0.166748V32.9442Z" fill="#393B57" fill-opacity="0.58"/>
<path d="M61.5733 11.0052L63.9548 13.3339C63.9548 13.3339 64.485 13.8523 65.0151 13.3339L66.7768 11.6113V22.0744H71.6215V1.68262H66.7768V9.37039L65.0151 7.64782C65.0151 7.64782 64.485 7.12945 63.9548 7.64782L61.5733 9.97648C61.5733 9.97648 61.0431 10.4948 61.5733 11.0132V11.0052Z" fill="#393B57" fill-opacity="0.58"/>
<path d="M130.149 14.3309C134.774 14.3309 138.558 11.4679 138.558 7.89519C138.558 4.31447 134.774 1.45947 130.149 1.45947C125.525 1.45947 121.74 4.32245 121.74 7.89519C121.74 11.4759 125.525 14.3309 130.149 14.3309ZM130.149 4.57765C132.376 4.57765 134.154 6.07692 134.162 7.89519C134.162 9.71346 132.384 11.2127 130.149 11.2127C127.914 11.2127 126.144 9.71346 126.136 7.89519C126.136 6.07692 127.914 4.57765 130.149 4.57765Z" fill="#393B57" fill-opacity="0.58"/>
<path d="M84.1574 14.4105H105.436V14.2989V1.68262H100.592V5.85347H85.9843V1.68262H81.1396V11.3163C81.262 12.9192 82.5506 14.2271 84.1655 14.4105H84.1574ZM100.584 8.75632V11.5077H86.4492C86.2045 11.5077 86.1067 11.404 86.0414 11.3003C85.9925 11.2126 85.9843 11.1089 85.9762 11.069V8.75632H100.584Z" fill="#393B57" fill-opacity="0.58"/>
<path d="M52.7974 13.1824C53.4173 14.283 56.0109 18.1906 62.0871 19.4347L62.1687 19.4507L63.3921 17.0423C63.3921 17.0423 61.4917 16.3963 59.575 15.0406C57.6584 13.6848 55.6112 11.5795 55.0811 8.59687C54.9016 7.60001 54.8446 5.64617 54.8527 5.49465H61.7609V2.5918H43.7768L44.8534 5.49465H50.7339C50.7339 5.6382 50.685 7.60001 50.5056 8.59687C49.9673 11.5874 47.9283 13.6848 46.0116 15.0406C44.0949 16.3963 42.1946 17.0423 42.1946 17.0423L43.418 19.4507L43.4995 19.4347C49.5758 18.1906 52.1694 14.283 52.7892 13.1824H52.7974Z" fill="#393B57" fill-opacity="0.58"/>
<path d="M179.061 1.5791H174.322V8.75648H171.989V1.5791H167.145V18.2466H171.989V11.6753H174.322V19.7618H179.167V1.5791H179.061Z" fill="#393B57" fill-opacity="0.58"/>
<path d="M164.559 13.5651C164.559 10.3592 161.167 7.79932 157.031 7.79932C152.896 7.79932 149.503 10.3592 149.503 13.5651C149.503 16.771 152.896 19.323 157.031 19.331C161.175 19.331 164.551 16.771 164.559 13.5651ZM157.023 16.5158C155.033 16.5158 153.451 15.1761 153.451 13.5651C153.451 11.9462 155.041 10.6144 157.023 10.6144C159.005 10.6144 160.596 11.9462 160.596 13.5651C160.596 15.1761 159.013 16.5158 157.023 16.5158Z" fill="#393B57" fill-opacity="0.58"/>
<path d="M165.701 3.86768H159.723V0.70166H154.878V3.86768H147.717L148.794 6.77053H148.867H165.701V3.86768Z" fill="#393B57" fill-opacity="0.58"/>
<path d="M53.1073 28.6061C53.0584 28.5184 53.0584 28.4306 53.0502 28.4306V21.3809H48.1648V28.8852C48.2545 30.4084 49.5187 31.6286 51.0765 31.6924H71.6215V28.7656H53.352C53.2134 28.7656 53.1563 28.6938 53.1073 28.6141V28.6061Z" fill="#393B57" fill-opacity="0.58"/>
<path d="M168.719 19.5303C163.882 19.5303 159.927 22.5208 159.927 26.2611C159.927 30.0013 163.882 32.9839 168.719 32.9918C173.555 32.9918 177.511 30.0013 177.511 26.2611C177.511 22.5208 173.555 19.5382 168.719 19.5303ZM168.719 29.7381C166.386 29.7381 164.519 28.1671 164.519 26.2611C164.519 24.3551 166.386 22.792 168.719 22.784C171.052 22.784 172.919 24.3551 172.919 26.2611C172.919 28.1671 171.052 29.7301 168.719 29.7381Z" fill="#393B57" fill-opacity="0.58"/>
<path d="M78.5378 19.5064H91.2448V22.154H80.8378L81.9062 25.0569H100.779V31.7079H105.632V22.154H96.0895V19.5064H109.922V19.3947V16.6035H77.4612L78.5378 19.5064Z" fill="#393B57" fill-opacity="0.58"/>
<path d="M114.563 19.4984H145.947V19.3947V16.6035H113.486L114.563 19.4984Z" fill="#393B57" fill-opacity="0.58"/>
<path d="M123.959 28.7975C123.845 28.7975 123.796 28.7337 123.755 28.638C123.722 28.5582 123.714 28.4625 123.714 28.4306V21.4048H118.845V28.957C118.935 30.4403 120.166 31.6365 121.683 31.6924H142.294V28.7975H123.951H123.959Z" fill="#393B57" fill-opacity="0.58"/>
</g>
<defs>
<clipPath id="clip0_116_1106">
<rect width="179" height="33" fill="white" transform="translate(0.166748)"/>
</clipPath>
</defs>
</svg>
