<svg width="151" height="41" viewBox="0 0 151 41" fill="none" xmlns="http://www.w3.org/2000/svg">
<g clip-path="url(#clip0_116_1095)">
<path d="M70.5714 10.1284H66.2305V37.1696H70.5714V19.8753H74.5877V17.4568H70.5714V10.1284Z" fill="#393B57" fill-opacity="0.58"/>
<path d="M58.0275 9.479H53.6947V12.003H47.7878V14.4214H51.8285C49.6459 16.0283 48.1854 18.8931 48.1854 22.1637C48.1854 27.1954 51.6176 31.2775 55.8611 31.2775C60.1046 31.2775 63.5449 27.1954 63.5449 22.1637C63.5449 18.885 62.0844 16.0283 59.9018 14.4214H63.9506V12.003H58.0275V9.479ZM59.2689 22.1718C59.2689 25.8563 57.7678 28.8672 55.8935 28.8672C54.0274 28.8672 52.5101 25.8806 52.502 22.188C52.502 18.4954 54.003 15.5008 55.8773 15.4927C57.7435 15.4927 59.2689 18.4873 59.2689 22.1718Z" fill="#393B57" fill-opacity="0.58"/>
<path d="M101.25 17.4568H97.2335V10.1284H92.8926V26.4813C92.1786 27.1793 91.0832 27.9259 89.5822 27.9016H82.6854C81.6631 27.9016 80.8355 27.0819 80.8355 26.0756V11.3539H76.5352L76.5514 26.0675C76.5514 28.421 78.4825 30.3363 80.8598 30.3363H88.3245C88.3245 30.3363 90.9615 30.4661 92.8845 28.7131V37.1696H97.2254V19.8753H101.242V17.4568H101.25Z" fill="#393B57" fill-opacity="0.58"/>
<path d="M120.885 17.335C120.885 13.0094 117.445 9.50342 113.21 9.50342C108.974 9.50342 105.534 13.0094 105.534 17.335C105.534 20.0456 106.881 22.4316 108.934 23.8356H100.974V26.3676H104.301L104.317 32.8682C104.317 35.2299 106.248 37.137 108.625 37.137H123.246V34.7023H110.443C109.437 34.7023 108.609 33.8827 108.609 32.8682V26.3676H125.259V23.8356H117.494C119.538 22.4316 120.893 20.0456 120.893 17.335H120.885ZM113.404 22.7481C111.538 22.7562 110.005 20.3459 109.988 17.3674C109.964 14.3809 111.473 11.9543 113.331 11.9462C115.205 11.9381 116.731 14.3403 116.747 17.3269C116.771 20.3053 115.27 22.74 113.404 22.7481Z" fill="#393B57" fill-opacity="0.58"/>
<path d="M138.711 19.8915C138.711 17.6597 137.738 15.6795 136.237 14.4297H138.955V12.0113H134.671V9.4873H130.338V12.0113H126.021V14.4297H128.756C127.246 15.6795 126.281 17.6597 126.281 19.8915C126.281 23.6815 129.064 26.7492 132.496 26.7492C135.928 26.7492 138.719 23.6815 138.719 19.8915H138.711ZM132.512 24.3145C131.449 24.3226 130.581 22.3505 130.557 19.9077C130.541 17.4649 131.384 15.4847 132.455 15.4847C133.518 15.4766 134.395 17.4487 134.411 19.8915C134.411 22.3262 133.567 24.3145 132.512 24.3145Z" fill="#393B57" fill-opacity="0.58"/>
<path d="M150.825 29.9871V10.1445H146.728V15.5413H144.748V10.1201H140.626V22.8129C137.632 23.8842 135.49 26.7814 135.49 30.1981C135.49 34.5237 138.922 38.0297 143.174 38.0297C147.425 38.0297 150.849 34.5318 150.849 30.1981C150.849 30.1251 150.841 30.052 150.841 29.979L150.825 29.9871ZM143.239 35.5219C141.364 35.5219 139.847 33.1116 139.839 30.1332C139.831 27.1466 141.332 24.7201 143.198 24.7201C145.064 24.712 146.598 27.1223 146.598 30.1088C146.598 33.0873 145.097 35.5138 143.231 35.5138L143.239 35.5219ZM146.728 23.2755C146.111 22.9428 145.446 22.6912 144.748 22.5451V17.9517H146.728V23.2674V23.2755Z" fill="#393B57" fill-opacity="0.58"/>
<path d="M29.8159 22.5048C29.0288 20.7924 27.9254 19.364 26.2702 18.3983C23.6981 16.8969 20.5986 16.905 18.0509 18.447C16.8987 19.1449 15.9575 20.1431 15.3409 21.3442C15.138 21.75 14.9676 22.1801 14.8297 22.6184C14.1562 24.7447 14.1806 27.6095 15.3895 29.5572C15.7871 30.1902 16.3551 30.734 17.0529 31.0018C17.7507 31.2696 18.5783 31.2453 19.203 30.8314C20.0144 30.312 20.1523 29.3137 20.0063 28.421C19.8197 27.293 19.6736 26.173 20.0874 25.0693C20.2254 24.7122 20.412 24.3795 20.6797 24.1116C20.842 23.9574 21.0449 23.8195 21.2477 23.7221C21.6859 23.5111 22.1889 23.4137 22.6676 23.4949C23.5115 23.6328 24.2011 24.2821 24.5744 25.053C24.9476 25.8159 25.0531 26.6843 25.0936 27.5364C25.2722 31.2453 24.3877 35.092 23.4384 38.6548C23.3411 39.02 23.2437 39.3852 23.1382 39.7504C23.0571 40.0344 22.911 40.3915 23.0895 40.6675C23.1707 40.7811 23.2924 40.8703 23.4222 40.919C23.9739 41.1382 24.4202 40.8054 24.7934 40.4321C26.9679 38.2409 28.3635 35.4167 29.3209 32.5194C29.678 31.44 29.9863 30.3282 30.1891 29.2082C30.4731 27.6744 30.6273 25.9133 30.3514 24.2902C30.2459 23.6653 30.0755 23.0566 29.824 22.4966L29.8159 22.5048Z" fill="#393B57" fill-opacity="0.58"/>
<path d="M44.8913 6.23294C44.3558 6.25729 43.8608 6.5251 43.3659 6.71988C33.7916 10.3557 23.0002 11.0455 12.9148 9.5928C11.1865 9.34122 9.44206 8.99225 7.70571 8.72443C6.61845 8.554 5.54743 8.31054 4.45207 8.22938C3.51898 8.15634 2.3587 8.12388 1.60412 8.77312C0.606121 9.63338 0.679146 11.2646 1.24711 12.3359C1.92867 13.6263 3.11329 14.592 4.34659 15.3305C5.54743 16.0447 6.97546 16.8076 8.40349 16.7183C12.2576 16.4748 16.1035 16.1015 19.9332 15.6065C26.4648 14.7543 33.3129 13.959 39.455 11.4188C41.4592 10.591 43.4389 9.55222 45.159 8.22126C45.4755 7.98591 45.9217 7.59636 45.9217 7.14189C45.9217 6.58191 45.4268 6.21671 44.8994 6.23294H44.8913Z" fill="#393B57" fill-opacity="0.58"/>
<path d="M22.2375 7.62055C24.3146 7.62055 26.0023 5.9325 26.0023 3.85491C26.0023 3.54652 25.9292 3.23812 25.7994 2.95408C25.4749 2.27237 25.1179 1.93151 25.1503 1.11995C25.199 0.00811559 23.7791 0 23.0164 0C22.1888 0 21.3044 0.113618 20.5498 0.495051C19.9494 0.795329 19.4382 1.25792 19.0731 1.82601C18.6998 2.40222 18.4889 3.08393 18.4727 3.77375C18.4727 3.80622 18.4727 3.83056 18.4727 3.86302C18.4727 5.94062 20.1603 7.62866 22.2375 7.62866V7.62055Z" fill="#393B57" fill-opacity="0.58"/>
</g>
<defs>
<clipPath id="clip0_116_1095">
<rect width="150" height="41" fill="white" transform="translate(0.833252)"/>
</clipPath>
</defs>
</svg>
