<svg width="120" height="39" viewBox="0 0 120 39" fill="none" xmlns="http://www.w3.org/2000/svg">
<g clip-path="url(#clip0_116_1434)">
<path d="M23.3482 0L15.746 3.90709L8.1438 0L15.746 14.8058L23.3482 0Z" fill="#393B57" fill-opacity="0.58"/>
<path d="M25.7623 11.5937L30.9504 9.33879V1.56006L21.6534 5.60897L16.4999 15.6213C20.346 16.0042 23.3482 19.337 23.3482 23.3788C23.3482 27.6901 19.9448 31.1717 15.7459 31.1717C11.5471 31.1717 8.13681 27.6901 8.13681 23.3788C8.13681 19.337 11.1459 16.0042 14.985 15.6213L9.83849 5.60897L0.541504 1.56006V9.33879L5.72955 11.5937C2.5268 14.4513 0.5 18.6704 0.5 23.3717C0.5 32.0013 7.32055 38.993 15.7459 38.993C24.1713 38.993 30.9919 32.0013 30.9919 23.3717C30.9919 18.6704 28.9651 14.4513 25.7623 11.5866V11.5937Z" fill="#393B57" fill-opacity="0.58"/>
<path d="M118.075 5.70809H113.634V11.7212H107.36H101.314C101.999 12.5579 102.421 13.6499 102.421 14.8412C102.421 17.5145 100.297 19.6985 97.6826 19.6985C95.0678 19.6985 92.9442 17.5145 92.9442 14.8412C92.9442 12.1679 95.054 9.991 97.6688 9.97681H109.076C109.415 9.97681 109.67 9.73572 109.705 9.38827C109.705 9.38827 109.83 8.62954 109.691 7.99845C109.629 7.66518 109.401 7.44536 109.062 7.44536H100.609V6.65118C100.588 5.84281 99.9653 5.19754 99.1906 5.17627H94.7427V7.45245L84.6848 7.45954L86.4626 9.991H89.6653C88.0052 11.2886 86.9952 12.9905 86.9952 14.8554C86.9952 18.9114 91.7752 22.2228 97.6826 22.2228C101.591 22.2228 105.015 20.7692 106.869 18.5994H113.62V25.9243H95.1578V24.0877C95.1439 23.2723 94.5214 22.627 93.7328 22.5986H89.2918V32.143C89.2918 33.6108 90.447 34.8092 91.8651 34.8375H119.493V7.19009C119.472 6.38172 118.85 5.73645 118.068 5.71518L118.075 5.70809ZM113.62 32.2848H95.6558C94.9987 32.2494 95.1716 31.7175 95.1578 31.0439V28.4415H113.62V32.2919V32.2848ZM113.627 16.0466H108.211C108.301 15.6495 108.356 15.2383 108.356 14.8341C108.356 14.6285 108.342 14.4441 108.322 14.2455H113.634V16.0466H113.627Z" fill="#393B57" fill-opacity="0.58"/>
<path d="M78.037 20.0387H64.3475V16.3869H77.366C77.7119 16.3869 77.9125 16.1742 77.9609 15.8267C77.9609 15.8267 78.0924 14.9829 77.9471 14.4015C77.8295 13.8413 77.3591 13.8484 77.3591 13.8484H52.4012C51.7578 13.82 51.239 13.2811 51.2321 12.6146V7.18292C51.2183 6.37455 50.5957 5.72928 49.8071 5.70801H45.3523V13.6995C45.3592 15.1744 46.5075 16.3586 47.9394 16.3798H58.4815V20.0316H42.9451L44.7298 22.5702H48.8387C47.1232 23.7827 45.9956 25.7895 45.9956 28.0586C45.9956 30.9587 48.5966 36.1422 61.4629 36.1422C74.3293 36.1422 76.9372 30.9375 76.9372 28.0586C76.9372 26.4489 76.363 24.9669 75.4153 23.804H68.2835C68.2835 23.804 68.3112 23.804 68.325 23.8182C69.8192 24.4918 70.8706 26.1369 70.8706 28.0586C70.8706 29.9802 69.7915 33.5682 61.456 33.5682C53.1206 33.5682 52.0484 30.0369 52.0484 28.0586C52.0484 26.0802 53.1206 22.5702 61.456 22.5702H61.4699H78.0439C78.3829 22.5702 78.6319 22.3362 78.6734 21.9746C78.6734 21.9746 78.7979 21.2087 78.6596 20.5847C78.6043 20.2444 78.376 20.0246 78.037 20.0246V20.0387Z" fill="#393B57" fill-opacity="0.58"/>
</g>
<defs>
<clipPath id="clip0_116_1434">
<rect width="119" height="39" fill="white" transform="translate(0.5)"/>
</clipPath>
</defs>
</svg>
