<svg width="121" height="25" viewBox="0 0 121 25" fill="none" xmlns="http://www.w3.org/2000/svg">
<path d="M19.1401 8.72796H17.265V1.15039H13.9126V24.5471H17.265V11.251H19.1401V24.5471H22.4925V1.15039H19.1401V8.72796Z" fill="#393B57" fill-opacity="0.58"/>
<path d="M8.40087 8.0641V1.94727H4.86176V8.0641C4.86176 12.3965 3.35195 14.7619 0.259277 15.9073V18.4303C3.14901 17.7664 5.51113 16.3305 6.63131 14.0398C7.75149 16.3305 10.1136 17.7664 13.0033 18.4303V15.9073C9.91068 14.7619 8.40087 12.3965 8.40087 8.0641Z" fill="#393B57" fill-opacity="0.58"/>
<path d="M45.3099 1.15039H41.8032V24.5471H45.3099V11.251H48.9545V8.72796H45.3099V1.15039Z" fill="#393B57" fill-opacity="0.58"/>
<path d="M36.8598 2.21289H25.8123V16.0401C25.8123 17.2103 26.7457 18.1648 27.8903 18.1648H38.0287V3.40804C38.0287 2.74407 37.5092 2.21289 36.8598 2.21289ZM34.5221 15.7745H29.3189V4.60319H34.5221V15.7745Z" fill="#393B57" fill-opacity="0.58"/>
<path d="M52.5261 5.54084C52.5261 8.36272 55.8298 10.3297 60.8463 10.3297C65.8627 10.3297 69.1665 8.36272 69.1665 5.54084C69.1665 2.71897 65.8627 0.751953 60.8463 0.751953C55.8298 0.751953 52.5261 2.71897 52.5261 5.54084ZM65.5299 5.54084C65.5299 6.84389 63.6549 7.93114 60.8463 7.93114C58.0377 7.93114 56.1626 6.84389 56.1626 5.54084C56.1626 4.2378 58.0377 3.15055 60.8463 3.15055C63.6549 3.15055 65.5299 4.2378 65.5299 5.54084Z" fill="#393B57" fill-opacity="0.58"/>
<path d="M72.2917 11.3921H49.4092V13.7824H72.2917V11.3921Z" fill="#393B57" fill-opacity="0.58"/>
<path d="M52.0066 18.6211V22.4223C52.0066 23.5926 52.9401 24.547 54.0846 24.547H69.9457V22.3144H55.6431V20.7707H69.6859V16.1727C69.6859 15.5087 69.1664 14.9775 68.5171 14.9775H52.0066V17.2101H66.0494V18.6211H52.0066Z" fill="#393B57" fill-opacity="0.58"/>
<path d="M94.062 7.00175V3.14241C94.062 2.47844 93.5425 1.94727 92.8931 1.94727H76.3827V4.33756H90.5554V7.00175C90.5554 8.59528 90.2956 9.68253 89.7761 10.4544H73.7852V12.8447H96.6676V10.4544H93.161C93.6805 9.68253 94.0701 8.59528 94.0701 7.00175H94.062Z" fill="#393B57" fill-opacity="0.58"/>
<path d="M94.0622 24.547V16.1727C94.0622 15.5087 93.5427 14.9775 92.8933 14.9775H76.3828V22.4223C76.3828 23.5926 77.3163 24.547 78.4608 24.547H94.0622ZM79.8976 17.3678H90.5555V22.1567H79.8976V17.3678Z" fill="#393B57" fill-opacity="0.58"/>
<path d="M113.479 16.8369H116.855C117.48 15.4508 117.894 13.6498 117.894 11.2512V3.67366C117.894 3.00969 117.375 2.47852 116.726 2.47852H100.215V4.86881H114.388V11.2512C114.388 13.6415 114.047 15.4508 113.479 16.8369Z" fill="#393B57" fill-opacity="0.58"/>
<path d="M109.396 11.251H105.865V19.5008H97.6174V21.8911H120.5V19.5008H109.396V11.251Z" fill="#393B57" fill-opacity="0.58"/>
</svg>
