<svg width="46" height="24" viewBox="0 0 46 24" fill="none" xmlns="http://www.w3.org/2000/svg">
<path d="M36.6548 14.5669H41.7768V17.505C40.2264 18.974 38.1889 19.6546 36.1596 19.6546C32.2146 19.6546 29.1463 17.0817 29.1463 11.7699C29.1463 7.64498 31.0782 3.89355 36.1759 3.89355C38.7409 3.89355 40.892 4.9476 41.6388 7.85248H45.3808C44.9749 3.59476 41.655 0.299805 36.395 0.299805C29.5847 0.299805 25.1121 4.60732 25.1121 11.9442C25.1121 19.2811 30.1042 23.3894 36.395 23.3894C39.3335 23.3894 42.9943 22.0781 45.5837 19.057V10.9731H36.6629V14.5669H36.6548Z" fill="#393B57" fill-opacity="0.58"/>
<path d="M11.8892 17.3058L5.90677 0.681641H0.963379V23.016H4.7379V7.86083L10.1196 22.7504H13.6587L19.0405 7.86083V23.016H22.8069V0.681641H17.8716L11.8892 17.3058Z" fill="#393B57" fill-opacity="0.58"/>
</svg>
