<svg width="81" height="74" viewBox="0 0 81 74" fill="none" xmlns="http://www.w3.org/2000/svg">
<path d="M40.4993 17.8333C40.4993 13.7667 38.8839 9.86658 36.0083 6.99103C33.1328 4.11547 29.2327 2.5 25.166 2.5L2.16602 2.5L2.16602 60L28.9994 60C32.0493 60 34.9744 61.2116 37.1311 63.3683C39.2878 65.5249 40.4994 68.45 40.4994 71.5M40.4993 17.8333L40.4994 71.5M40.4993 17.8333C40.4993 13.7667 42.1148 9.86658 44.9904 6.99103C47.8659 4.11547 51.766 2.5 55.8327 2.5L78.8327 2.49999L78.8327 60L51.9994 60C48.9494 60 46.0243 61.2116 43.8676 63.3683C41.711 65.5249 40.4994 68.45 40.4994 71.5" stroke="#393B57" stroke-width="4" stroke-linecap="round" stroke-linejoin="round"/>
</svg>
