<svg width="50" height="90" viewBox="0 0 50 90" fill="none" xmlns="http://www.w3.org/2000/svg">
<path d="M25 2.83349L25 87.1668M44.1667 18.1668L15.4167 18.1668C11.8583 18.1668 8.44576 19.5804 5.92965 22.0965C3.41354 24.6126 2 28.0252 2 31.5835C2 35.1418 3.41354 38.5544 5.92965 41.0705C8.44577 43.5866 11.8583 45.0002 15.4167 45.0002L34.5833 45.0002C38.1417 45.0002 41.5542 46.4137 44.0704 48.9298C46.5865 51.4459 48 54.8585 48 58.4168C48 61.9751 46.5865 65.3877 44.0704 67.9038C41.5542 70.42 38.1417 71.8335 34.5833 71.8335L2.00001 71.8335" stroke="#393B57" stroke-width="4" stroke-linecap="round" stroke-linejoin="round"/>
</svg>
