<svg width="89" height="74" viewBox="0 0 89 74" fill="none" xmlns="http://www.w3.org/2000/svg">
<path d="M63.6673 71.5L63.6673 63.8333C63.6673 59.7667 62.0518 55.8666 59.1763 52.991C56.3007 50.1155 52.4006 48.5 48.334 48.5L17.6673 48.5C13.6007 48.5 9.70057 50.1155 6.82502 52.991C3.94946 55.8666 2.33399 59.7667 2.33399 63.8333L2.33399 71.5M86.6673 71.5L86.6673 63.8333C86.6648 60.436 85.534 57.1356 83.4525 54.4505C81.3711 51.7655 78.4568 49.8477 75.1673 48.9983M59.834 2.99833C63.1322 3.84282 66.0556 5.76102 68.1433 8.45052C70.2309 11.14 71.364 14.4478 71.364 17.8525C71.364 21.2571 70.2309 24.565 68.1433 27.2545C66.0556 29.944 63.1322 31.8622 59.834 32.7067M48.334 17.8333C48.334 26.3017 41.469 33.1667 33.0006 33.1667C24.5323 33.1667 17.6673 26.3017 17.6673 17.8333C17.6673 9.36497 24.5323 2.5 33.0006 2.5C41.469 2.5 48.334 9.36496 48.334 17.8333Z" stroke="#393B57" stroke-width="4" stroke-linecap="round" stroke-linejoin="round"/>
</svg>
