<svg width="86" height="71" viewBox="0 0 86 71" fill="none" xmlns="http://www.w3.org/2000/svg">
<path d="M57.8332 68.875V61.4583C57.8332 57.5243 56.2705 53.7514 53.4887 50.9696C50.7069 48.1878 46.934 46.625 42.9999 46.625H17.0416C13.1075 46.625 9.33462 48.1878 6.55283 50.9696C3.77105 53.7514 2.20825 57.5243 2.20825 61.4583V68.875M61.5416 31.7917L68.9582 39.2083L83.7916 24.375M44.8541 16.9583C44.8541 25.1506 38.213 31.7917 30.0207 31.7917C21.8285 31.7917 15.1874 25.1506 15.1874 16.9583C15.1874 8.76611 21.8285 2.125 30.0207 2.125C38.213 2.125 44.8541 8.76611 44.8541 16.9583Z" stroke="#393B57" stroke-width="4" stroke-linecap="round" stroke-linejoin="round"/>
</svg>
