<svg width="86" height="87" viewBox="0 0 86 87" fill="none" xmlns="http://www.w3.org/2000/svg">
<path d="M42.9999 54.6252C49.1441 54.6252 54.1249 49.6443 54.1249 43.5002C54.1249 37.356 49.1441 32.3752 42.9999 32.3752C36.8557 32.3752 31.8749 37.356 31.8749 43.5002C31.8749 49.6443 36.8557 54.6252 42.9999 54.6252Z" stroke="#393B57" stroke-width="4" stroke-linecap="round" stroke-linejoin="round"/>
<path d="M70.4416 54.6252C69.9479 55.7437 69.8007 56.9844 70.0188 58.1873C70.2369 59.3903 70.8104 60.5003 71.6653 61.3743L71.8878 61.5968C72.5774 62.2856 73.1244 63.1036 73.4977 64.004C73.8709 64.9043 74.063 65.8695 74.063 66.8441C74.063 67.8188 73.8709 68.7839 73.4977 69.6843C73.1244 70.5846 72.5774 71.4026 71.8878 72.0914C71.199 72.781 70.381 73.328 69.4807 73.7013C68.5803 74.0745 67.6152 74.2666 66.6405 74.2666C65.6659 74.2666 64.7008 74.0745 63.8004 73.7013C62.9 73.328 62.0821 72.781 61.3932 72.0914L61.1707 71.8689C60.2968 71.014 59.1867 70.4405 57.9838 70.2224C56.7808 70.0043 55.5401 70.1515 54.4216 70.6452C53.3248 71.1152 52.3894 71.8958 51.7305 72.8907C51.0716 73.8856 50.718 75.0514 50.7132 76.2447V76.8752C50.7132 78.8422 49.9318 80.7286 48.541 82.1195C47.1501 83.5104 45.2636 84.2918 43.2966 84.2918C41.3296 84.2918 39.4431 83.5104 38.0522 82.1195C36.6613 80.7286 35.8799 78.8422 35.8799 76.8752V76.5414C35.8512 75.314 35.4539 74.1236 34.7396 73.1249C34.0254 72.1263 33.0272 71.3656 31.8749 70.9418C30.7564 70.4482 29.5157 70.3009 28.3127 70.5191C27.1098 70.7372 25.9997 71.3107 25.1257 72.1656L24.9032 72.3881C24.2144 73.0777 23.3965 73.6247 22.4961 73.9979C21.5957 74.3712 20.6306 74.5633 19.656 74.5633C18.6813 74.5633 17.7162 74.3712 16.8158 73.9979C15.9154 73.6247 15.0975 73.0777 14.4087 72.3881C13.7191 71.6993 13.172 70.8813 12.7988 69.9809C12.4256 69.0806 12.2335 68.1154 12.2335 67.1408C12.2335 66.1661 12.4256 65.201 12.7988 64.3006C13.172 63.4003 13.7191 62.5823 14.4087 61.8935L14.6312 61.671C15.4861 60.797 16.0596 59.687 16.2777 58.484C16.4958 57.281 16.3486 56.0403 15.8549 54.9218C15.3848 53.825 14.6043 52.8896 13.6094 52.2307C12.6145 51.5718 11.4486 51.2183 10.2553 51.2135H9.62492C7.6579 51.2135 5.77144 50.4321 4.38054 49.0412C2.98965 47.6503 2.20825 45.7638 2.20825 43.7968C2.20825 41.8298 2.98965 39.9433 4.38054 38.5525C5.77144 37.1616 7.6579 36.3802 9.62492 36.3802H9.95867C11.1861 36.3514 12.3765 35.9541 13.3752 35.2399C14.3738 34.5256 15.1344 33.5275 15.5583 32.3752C16.0519 31.2567 16.1991 30.0159 15.981 28.813C15.7629 27.61 15.1894 26.5 14.3345 25.626L14.112 25.4035C13.4224 24.7147 12.8754 23.8967 12.5021 22.9963C12.1289 22.096 11.9368 21.1309 11.9368 20.1562C11.9368 19.1815 12.1289 18.2164 12.5021 17.3161C12.8754 16.4157 13.4224 15.5977 14.112 14.9089C14.8008 14.2193 15.6188 13.6723 16.5192 13.2991C17.4195 12.9258 18.3846 12.7337 19.3593 12.7337C20.334 12.7337 21.2991 12.9258 22.1994 13.2991C23.0998 13.6723 23.9178 14.2193 24.6066 14.9089L24.8291 15.1314C25.7031 15.9863 26.8131 16.5598 28.0161 16.7779C29.219 16.996 30.4598 16.8488 31.5782 16.3552H31.8749C32.9717 15.8851 33.9071 15.1045 34.566 14.1096C35.2249 13.1147 35.5785 11.9489 35.5832 10.7556V10.1252C35.5832 8.15814 36.3646 6.27168 37.7555 4.88079C39.1464 3.48989 41.0329 2.7085 42.9999 2.7085C44.9669 2.7085 46.8534 3.48989 48.2443 4.88079C49.6352 6.27168 50.4166 8.15814 50.4166 10.1252V10.4589C50.4213 11.6522 50.7749 12.8181 51.4338 13.813C52.0927 14.8079 53.0281 15.5884 54.1249 16.0585C55.2434 16.5521 56.4841 16.6994 57.6871 16.4813C58.8901 16.2631 60.0001 15.6897 60.8741 14.8347L61.0966 14.6122C61.7854 13.9227 62.6034 13.3756 63.5037 13.0024C64.4041 12.6291 65.3692 12.437 66.3439 12.437C67.3185 12.437 68.2836 12.6291 69.184 13.0024C70.0844 13.3756 70.9024 13.9227 71.5912 14.6122C72.2807 15.3011 72.8278 16.119 73.201 17.0194C73.5743 17.9198 73.7664 18.8849 73.7664 19.8595C73.7664 20.8342 73.5743 21.7993 73.201 22.6997C72.8278 23.6 72.2807 24.418 71.5912 25.1068L71.3687 25.3293C70.5138 26.2033 69.9403 27.3133 69.7221 28.5163C69.504 29.7193 69.6513 30.96 70.1449 32.0785V32.3752C70.615 33.472 71.3955 34.4074 72.3904 35.0663C73.3853 35.7252 74.5512 36.0787 75.7445 36.0835H76.3749C78.3419 36.0835 80.2284 36.8649 81.6193 38.2558C83.0102 39.6467 83.7916 41.5331 83.7916 43.5002C83.7916 45.4672 83.0102 47.3536 81.6193 48.7445C80.2284 50.1354 78.3419 50.9168 76.3749 50.9168H76.0412C74.8479 50.9216 73.682 51.2752 72.6871 51.934C71.6922 52.5929 70.9117 53.5283 70.4416 54.6252Z" stroke="#393B57" stroke-width="4" stroke-linecap="round" stroke-linejoin="round"/>
</svg>
