<svg width="68" height="67" viewBox="0 0 68 67" fill="none" xmlns="http://www.w3.org/2000/svg">
<path d="M33.9997 41.8748C38.6941 41.8748 42.4997 38.1252 42.4997 33.4998C42.4997 28.8745 38.6941 25.1248 33.9997 25.1248C29.3053 25.1248 25.4997 28.8745 25.4997 33.4998C25.4997 38.1252 29.3053 41.8748 33.9997 41.8748Z" stroke="#393B57" stroke-width="4" stroke-linecap="round" stroke-linejoin="round"/>
<path d="M54.9663 41.8748C54.5892 42.7168 54.4767 43.6509 54.6433 44.5565C54.81 45.4621 55.2482 46.2977 55.9013 46.9557L56.0713 47.1232C56.5982 47.6417 57.0162 48.2575 57.3013 48.9353C57.5865 49.6131 57.7333 50.3396 57.7333 51.0734C57.7333 51.8071 57.5865 52.5337 57.3013 53.2115C57.0162 53.8893 56.5982 54.505 56.0713 55.0236C55.5451 55.5427 54.9201 55.9545 54.2322 56.2355C53.5442 56.5165 52.8069 56.6611 52.0622 56.6611C51.3175 56.6611 50.5801 56.5165 49.8922 56.2355C49.2043 55.9545 48.5793 55.5427 48.053 55.0236L47.883 54.8561C47.2152 54.2125 46.3671 53.7808 45.448 53.6166C44.5289 53.4524 43.5809 53.5632 42.7263 53.9348C41.8883 54.2887 41.1736 54.8763 40.6702 55.6253C40.1668 56.3743 39.8966 57.2519 39.893 58.1503L39.893 58.6248C39.893 60.1056 39.296 61.5258 38.2333 62.5729C37.1706 63.6199 35.7292 64.2082 34.2263 64.2082C32.7234 64.2082 31.2821 63.6199 30.2194 62.5729C29.1567 61.5258 28.5597 60.1056 28.5597 58.6248L28.5597 58.3736C28.5377 57.4496 28.2342 56.5534 27.6885 55.8016C27.1427 55.0499 26.3801 54.4772 25.4997 54.1582C24.6451 53.7866 23.6971 53.6757 22.778 53.8399C21.8589 54.0041 21.0108 54.4358 20.343 55.0794L20.173 55.2469C19.6467 55.766 19.0218 56.1779 18.3338 56.4588C17.6459 56.7398 16.9085 56.8844 16.1638 56.8844C15.4192 56.8844 14.6818 56.7398 13.9938 56.4588C13.3059 56.1779 12.681 55.766 12.1547 55.2469C11.6278 54.7284 11.2098 54.1126 10.9247 53.4348C10.6395 52.757 10.4927 52.0305 10.4927 51.2967C10.4927 50.563 10.6395 49.8364 10.9247 49.1586C11.2098 48.4808 11.6278 47.865 12.1547 47.3465L12.3247 47.179C12.9779 46.5211 13.416 45.6854 13.5827 44.7798C13.7493 43.8742 13.6368 42.9402 13.2597 42.0982C12.9005 41.2725 12.3042 40.5683 11.544 40.0723C10.7838 39.5763 9.89307 39.3101 8.98134 39.3065L8.49968 39.3065C6.99678 39.3065 5.55545 38.7183 4.49274 37.6712C3.43003 36.6241 2.83301 35.204 2.83301 33.7232C2.83301 32.2424 3.43003 30.8222 4.49274 29.7752C5.55544 28.7281 6.99678 28.1398 8.49968 28.1398L8.75468 28.1398C9.69249 28.1182 10.602 27.8191 11.365 27.2814C12.128 26.7437 12.7092 25.9923 13.033 25.1248C13.4102 24.2828 13.5227 23.3488 13.356 22.4432C13.1894 21.5376 12.7512 20.7019 12.098 20.044L11.928 19.8765C11.4011 19.358 10.9832 18.7422 10.698 18.0644C10.4128 17.3866 10.2661 16.66 10.2661 15.9263C10.2661 15.1926 10.4128 14.466 10.698 13.7882C10.9832 13.1104 11.4011 12.4946 11.928 11.9761C12.4543 11.457 13.0793 11.0451 13.7672 10.7642C14.4551 10.4832 15.1925 10.3386 15.9372 10.3386C16.6819 10.3386 17.4192 10.4832 18.1072 10.7642C18.7951 11.0451 19.4201 11.457 19.9463 11.9761L20.1163 12.1436C20.7841 12.7872 21.6322 13.2189 22.5513 13.3831C23.4705 13.5473 24.4184 13.4364 25.273 13.0648L25.4997 13.0648C26.3377 12.711 27.0524 12.1234 27.5558 11.3744C28.0592 10.6254 28.3294 9.74774 28.333 8.84942L28.333 8.37484C28.333 6.89404 28.93 5.4739 29.9927 4.42682C31.0554 3.37974 32.4968 2.7915 33.9997 2.7915C35.5026 2.7915 36.9439 3.37974 38.0066 4.42682C39.0693 5.4739 39.6663 6.89404 39.6663 8.37483L39.6663 8.62608C39.67 9.52441 39.9401 10.4021 40.4435 11.1511C40.947 11.9 41.6617 12.4876 42.4997 12.8415C43.3542 13.2131 44.3022 13.324 45.2213 13.1598C46.1405 12.9956 46.9886 12.5638 47.6563 11.9203L47.8263 11.7528C48.3526 11.2336 48.9776 10.8218 49.6655 10.5408C50.3534 10.2599 51.0908 10.1152 51.8355 10.1152C52.5802 10.1152 53.3176 10.2599 54.0055 10.5408C54.6934 10.8218 55.3184 11.2336 55.8447 11.7528C56.3715 12.2713 56.7895 12.8871 57.0747 13.5649C57.3598 14.2427 57.5066 14.9692 57.5066 15.703C57.5066 16.4367 57.3598 17.1632 57.0747 17.841C56.7895 18.5188 56.3715 19.1346 55.8447 19.6532L55.6747 19.8207C55.0215 20.4786 54.5833 21.3143 54.4167 22.2199C54.25 23.1255 54.3625 24.0595 54.7397 24.9015L54.7397 25.1248C55.0988 25.9505 55.6952 26.6547 56.4554 27.1507C57.2155 27.6467 58.1063 27.9129 59.018 27.9165L59.4997 27.9165C61.0026 27.9165 62.4439 28.5047 63.5066 29.5518C64.5693 30.5989 65.1663 32.019 65.1663 33.4998C65.1663 34.9806 64.5693 36.4008 63.5066 37.4478C62.4439 38.4949 61.0026 39.0832 59.4997 39.0832L59.2447 39.0832C58.3329 39.0868 57.4422 39.3529 56.682 39.8489C55.9219 40.345 55.3255 41.0491 54.9663 41.8748Z" stroke="#393B57" stroke-width="4" stroke-linecap="round" stroke-linejoin="round"/>
</svg>
