<svg width="68" height="55" viewBox="0 0 68 55" fill="none" xmlns="http://www.w3.org/2000/svg">
<path d="M48.1663 52.625L48.1663 47.0417C48.1663 44.0801 46.9723 41.2398 44.8469 39.1456C42.7215 37.0515 39.8388 35.875 36.833 35.875L14.1663 35.875C11.1606 35.875 8.27788 37.0515 6.15247 39.1456C4.02706 41.2398 2.83301 44.0801 2.83301 47.0417L2.83301 52.625M65.1663 52.625L65.1663 47.0417C65.1645 44.5675 64.3287 42.164 62.7902 40.2085C61.2517 38.2531 59.0977 36.8565 56.6663 36.2379M45.333 2.73791C47.7708 3.35292 49.9316 4.74987 51.4746 6.70853C53.0177 8.66719 53.8552 11.0761 53.8552 13.5556C53.8552 16.0351 53.0177 18.4441 51.4746 20.4027C49.9316 22.3614 47.7708 23.7583 45.333 24.3733M36.833 13.5417C36.833 19.7088 31.7589 24.7083 25.4997 24.7083C19.2404 24.7083 14.1663 19.7088 14.1663 13.5417C14.1663 7.37449 19.2404 2.375 25.4997 2.375C31.7589 2.375 36.833 7.37448 36.833 13.5417Z" stroke="#393B57" stroke-width="4" stroke-linecap="round" stroke-linejoin="round"/>
</svg>
