<svg width="79" height="75" viewBox="0 0 79 75" fill="none" xmlns="http://www.w3.org/2000/svg">
<path d="M72.375 2.4165L64.9584 9.83317M64.9584 9.83317L76.0834 20.9582L63.1042 33.9373L51.9792 22.8123M64.9584 9.83317L51.9792 22.8123M36.738 38.0536C38.6527 39.9429 40.1749 42.1922 41.2167 44.6722C42.2586 47.1521 42.7996 49.8137 42.8086 52.5036C42.8176 55.1935 42.2944 57.8586 41.2692 60.3455C40.244 62.8324 38.737 65.0919 36.8349 66.994C34.9329 68.896 32.6733 70.403 30.1865 71.4283C27.6996 72.4535 25.0345 72.9767 22.3446 72.9676C19.6546 72.9586 16.9931 72.4176 14.5131 71.3758C12.0332 70.3339 9.78381 68.8118 7.89454 66.897C4.17928 63.0503 2.12349 57.8983 2.16996 52.5506C2.21643 47.2028 4.36144 42.0873 8.14299 38.3057C11.9245 34.5242 17.0401 32.3792 22.3878 32.3327C27.7355 32.2862 32.8876 34.342 36.7342 38.0573L36.738 38.0536ZM36.738 38.0536L51.9792 22.8123" stroke="#393B57" stroke-width="4" stroke-linecap="round" stroke-linejoin="round"/>
</svg>
