<svg width="28" height="28" viewBox="0 0 28 28" fill="none" xmlns="http://www.w3.org/2000/svg">
<path d="M10 2H4.66667C3.95942 2 3.28115 2.28095 2.78105 2.78105C2.28095 3.28115 2 3.95942 2 4.66667V10M10 2H23.3333C24.0406 2 24.7189 2.28095 25.219 2.78105C25.719 3.28115 26 3.95942 26 4.66667V10M10 2V26M2 10V23.3333C2 24.0406 2.28095 24.7189 2.78105 25.219C3.28115 25.719 3.95942 26 4.66667 26H10M2 10H26M26 10V23.3333C26 24.0406 25.719 24.7189 25.219 25.219C24.7189 25.719 24.0406 26 23.3333 26H10" stroke="#393B57" stroke-width="3" stroke-linecap="round" stroke-linejoin="round"/>
</svg>
