<svg width="56" height="61" viewBox="0 0 56 61" fill="none" xmlns="http://www.w3.org/2000/svg">
<path d="M18.3383 34.7156L37.69 45.8264M37.6617 15.1739L18.3383 26.2847M53.5 10.9585C53.5 15.5839 49.6944 19.3335 45 19.3335C40.3056 19.3335 36.5 15.5839 36.5 10.9585C36.5 6.33311 40.3056 2.58349 45 2.58349C49.6944 2.58349 53.5 6.33311 53.5 10.9585ZM19.5 30.5002C19.5 35.1255 15.6944 38.8752 11 38.8752C6.30558 38.8752 2.5 35.1255 2.5 30.5002C2.5 25.8748 6.30558 22.1252 11 22.1252C15.6944 22.1252 19.5 25.8748 19.5 30.5002ZM53.5 50.0418C53.5 54.6672 49.6944 58.4168 45 58.4168C40.3056 58.4168 36.5 54.6672 36.5 50.0418C36.5 45.4164 40.3056 41.6668 45 41.6668C49.6944 41.6668 53.5 45.4164 53.5 50.0418Z" stroke="#393B57" stroke-width="4" stroke-linecap="round" stroke-linejoin="round"/>
</svg>
