<svg width="24" height="23" viewBox="0 0 24 23" fill="none" xmlns="http://www.w3.org/2000/svg">
<path d="M21.9994 16.4201V19.4201C22.0006 19.6986 21.9435 19.9743 21.832 20.2294C21.7204 20.4846 21.5567 20.7137 21.3515 20.902C21.1463 21.0902 20.904 21.2336 20.6402 21.3228C20.3764 21.412 20.0968 21.4452 19.8194 21.4201C16.7423 21.0857 13.7864 20.0342 11.1894 18.3501C8.77327 16.8148 6.72478 14.7663 5.18945 12.3501C3.49942 9.7413 2.44769 6.77109 2.11944 3.6801C2.09446 3.40356 2.12732 3.12486 2.21595 2.86172C2.30457 2.59859 2.44702 2.35679 2.63421 2.15172C2.82141 1.94665 3.04925 1.78281 3.30324 1.67062C3.55722 1.55843 3.83179 1.50036 4.10945 1.5001H7.10945C7.59475 1.49532 8.06524 1.66718 8.43321 1.98363C8.80118 2.30008 9.04152 2.73954 9.10944 3.2201C9.23607 4.18016 9.47089 5.12282 9.80945 6.0301C9.94399 6.38802 9.97311 6.77701 9.89335 7.15098C9.8136 7.52494 9.62831 7.86821 9.35944 8.1401L8.08945 9.4101C9.513 11.9136 11.5859 13.9865 14.0894 15.4101L15.3594 14.1401C15.6313 13.8712 15.9746 13.6859 16.3486 13.6062C16.7225 13.5264 17.1115 13.5556 17.4694 13.6901C18.3767 14.0286 19.3194 14.2635 20.2794 14.3901C20.7652 14.4586 21.2088 14.7033 21.526 15.0776C21.8431 15.4519 22.0116 15.9297 21.9994 16.4201Z" stroke="#393B57" stroke-width="2.5" stroke-linecap="round" stroke-linejoin="round"/>
</svg>
