<svg width="67" height="82" viewBox="0 0 67 82" fill="none" xmlns="http://www.w3.org/2000/svg">
<path d="M48.834 10.3332L56.5006 10.3332C58.534 10.3332 60.484 11.1409 61.9218 12.5787C63.3596 14.0165 64.1673 15.9665 64.1673 17.9998L64.1673 71.6665C64.1673 73.6998 63.3596 75.6499 61.9218 77.0877C60.484 78.5254 58.534 79.3332 56.5006 79.3332L10.5007 79.3332C8.46733 79.3332 6.51728 78.5254 5.0795 77.0877C3.64173 75.6499 2.83399 73.6998 2.83399 71.6665L2.83399 17.9998C2.83399 15.9665 3.64172 14.0165 5.0795 12.5787C6.51728 11.1409 8.46732 10.3332 10.5007 10.3332L18.1673 10.3332M22.0006 2.6665L45.0006 2.6665C47.1177 2.6665 48.834 4.38274 48.834 6.49983L48.834 14.1665C48.834 16.2836 47.1177 17.9998 45.0006 17.9998L22.0006 17.9998C19.8836 17.9998 18.1673 16.2836 18.1673 14.1665L18.1673 6.49984C18.1673 4.38274 19.8836 2.6665 22.0006 2.6665Z" stroke="#393B57" stroke-width="4" stroke-linecap="round" stroke-linejoin="round"/>
</svg>
