<svg width="82" height="82" viewBox="0 0 82 82" fill="none" xmlns="http://www.w3.org/2000/svg">
<path d="M36.666 10.3334L9.83268 10.3334C7.79936 10.3334 5.84931 11.1411 4.41153 12.5789C2.97375 14.0167 2.16602 15.9667 2.16602 18.0001L2.16602 71.6667C2.16602 73.7001 2.97376 75.6501 4.41154 77.0879C5.84932 78.5257 7.79936 79.3334 9.83269 79.3334L63.4994 79.3334C65.5327 79.3334 67.4827 78.5257 68.9205 77.0879C70.3583 75.6501 71.166 73.7001 71.166 71.6667L71.166 44.8334M65.416 4.58338C66.941 3.05839 69.0093 2.20165 71.166 2.20165C73.3227 2.20165 75.391 3.05839 76.916 4.58338C78.441 6.10838 79.2977 8.17671 79.2977 10.3334C79.2977 12.4901 78.441 14.5584 76.916 16.0834L40.4994 52.5001L25.166 56.3334L28.9994 41.0001L65.416 4.58338Z" stroke="#393B57" stroke-width="4" stroke-linecap="round" stroke-linejoin="round"/>
</svg>
