<svg width="62" height="61" viewBox="0 0 62 61" fill="none" xmlns="http://www.w3.org/2000/svg">
<path d="M14.0003 13.7502L14.0287 13.7502M14.0003 47.2502L14.0287 47.2502M8.33366 2.5835L53.667 2.58349C56.7966 2.58349 59.3337 5.08323 59.3337 8.16682L59.3337 19.3335C59.3337 22.4171 56.7966 24.9168 53.667 24.9168L8.33366 24.9168C5.20405 24.9168 2.66699 22.4171 2.66699 19.3335L2.66699 8.16683C2.66699 5.08324 5.20405 2.5835 8.33366 2.5835ZM8.33366 36.0835L53.667 36.0835C56.7966 36.0835 59.3337 38.5832 59.3337 41.6668L59.3337 52.8335C59.3337 55.9171 56.7966 58.4168 53.667 58.4168L8.33366 58.4168C5.20405 58.4168 2.667 55.9171 2.667 52.8335L2.667 41.6668C2.667 38.5832 5.20405 36.0835 8.33366 36.0835Z" stroke="#393B57" stroke-width="4" stroke-linecap="round" stroke-linejoin="round"/>
</svg>
