<svg width="89" height="74" viewBox="0 0 89 74" fill="none" xmlns="http://www.w3.org/2000/svg">
<path d="M59.834 71.5L59.834 63.8333C59.834 59.7667 58.2185 55.8666 55.343 52.991C52.4674 50.1155 48.5673 48.5 44.5006 48.5L17.6673 48.5C13.6007 48.5 9.70057 50.1155 6.82502 52.991C3.94946 55.8666 2.33399 59.7667 2.33399 63.8333L2.33399 71.5M63.6673 33.1667L71.334 40.8333L86.6673 25.5M46.4173 17.8333C46.4173 26.3017 39.5523 33.1667 31.084 33.1667C22.6156 33.1667 15.7507 26.3017 15.7507 17.8333C15.7506 9.36497 22.6156 2.5 31.084 2.5C39.5523 2.5 46.4173 9.36496 46.4173 17.8333Z" stroke="#393B57" stroke-width="4" stroke-linecap="round" stroke-linejoin="round"/>
</svg>
